<?xml version="1.0" standalone="no"?>
<!DOCTYPE svg PUBLIC "-//W3C//DTD SVG 20010904//EN"
 "http://www.w3.org/TR/2001/REC-SVG-20010904/DTD/svg10.dtd">
<svg version="1.0" xmlns="http://www.w3.org/2000/svg"
 width="500.000000pt" height="500.000000pt" viewBox="0 0 500.000000 500.000000"
 preserveAspectRatio="xMidYMid meet">

<g transform="translate(0.000000,500.000000) scale(0.100000,-0.100000)"
fill="#000000" stroke="none">
<path d="M230 4215 l0 -555 555 0 555 0 0 555 0 555 -555 0 -555 0 0 -555z
m950 0 l0 -395 -395 0 -395 0 0 395 0 395 395 0 395 0 0 -395z"/>
<path d="M628 4452 l-78 -3 0 -74 c-1 -41 -1 -113 -1 -160 0 -47 0 -119 1
-160 l0 -75 235 0 235 0 0 235 0 235 -72 0 c-40 1 -111 2 -158 3 -47 1 -120 1
-162 -1z"/>
<path d="M1650 4690 l0 -80 -74 0 -74 0 -4 -77 c-2 -43 -2 -113 0 -155 l3 -78
74 0 75 0 0 75 0 75 80 0 80 0 0 -75 0 -75 80 0 80 0 0 155 0 155 160 0 160 0
0 80 0 80 -160 0 -160 0 0 -80 0 -81 -77 3 -78 3 -3 78 -3 77 -79 0 -80 0 0
-80z"/>
<path d="M2600 4610 l0 -160 320 0 320 0 0 160 0 160 -80 0 -80 0 0 -80 0 -81
-157 3 -158 3 -3 78 -3 77 -79 0 -80 0 0 -160z"/>
<path d="M3398 4693 c-2 -43 -2 -115 0 -160 l3 -83 74 0 74 0 3 83 c2 45 2
117 0 160 l-3 77 -74 0 -74 0 -3 -77z"/>
<path d="M3710 4215 l0 -555 555 0 555 0 0 555 0 555 -555 0 -555 0 0 -555z
m950 0 l0 -395 -395 0 -395 0 0 395 0 395 395 0 395 0 0 -395z"/>
<path d="M4108 4452 l-78 -3 0 -234 0 -235 235 0 235 0 1 78 c1 168 -1 386 -4
389 -5 4 -301 8 -389 5z"/>
<path d="M2208 4452 l-78 -3 0 -234 0 -235 -80 0 -80 0 0 -80 0 -80 -80 0 -80
0 0 160 0 160 -80 0 -80 0 0 -160 0 -160 -75 0 -75 0 0 -80 0 -80 75 0 75 0 0
-80 0 -80 80 0 80 0 0 80 0 80 80 0 80 0 0 -155 0 -155 80 0 80 0 0 -80 0 -80
-160 0 -160 0 0 -160 0 -160 80 0 80 0 0 -80 0 -80 80 0 80 0 0 80 0 80 -80 0
-80 0 0 80 0 80 80 0 80 0 0 80 0 80 80 0 80 0 0 80 0 80 -80 0 -80 0 0 155 0
155 80 0 80 0 0 -80 0 -80 80 0 80 0 0 80 0 80 75 0 75 0 0 -235 0 -235 -75 0
-75 0 0 -80 0 -80 -80 0 -80 0 0 -80 0 -80 80 0 80 0 -3 -157 -2 -158 -80 -2
c-44 -1 -187 -2 -317 -2 l-238 -1 0 -75 0 -74 158 -3 157 -3 3 -157 3 -158 79
0 80 0 0 -80 0 -80 80 0 81 0 -3 -77 -3 -78 -157 -3 -158 -3 0 81 0 80 -80 0
-80 0 0 80 0 80 -235 0 -235 0 0 80 0 80 -160 0 -160 0 0 -80 0 -80 160 0 160
0 0 -80 0 -80 -160 0 -160 0 0 -80 0 -80 80 0 81 0 -3 -77 -3 -78 -77 -3 -78
-3 0 -74 0 -75 80 0 80 0 0 75 0 75 80 0 80 0 0 -75 0 -75 75 0 75 0 0 -80 0
-80 -75 0 -75 0 0 -160 0 -160 155 0 155 0 0 80 0 80 -80 0 -81 0 3 78 3 77
158 3 157 3 0 -81 0 -80 315 0 314 0 3 78 c2 42 2 114 0 160 l-3 82 -75 0 -74
0 0 75 0 75 75 0 75 0 0 80 0 80 80 0 80 0 0 -475 0 -475 -315 0 -315 0 0 80
0 80 -80 0 -80 0 0 -160 0 -160 240 0 240 0 0 -75 0 -75 75 0 75 0 0 75 0 75
80 0 80 0 0 80 0 80 80 0 80 0 0 -155 0 -155 80 0 80 0 0 155 0 155 -80 0 -80
0 0 80 0 80 80 0 80 0 0 315 0 315 80 0 80 0 0 -475 0 -475 235 0 235 0 0
-155 0 -155 -80 0 -80 0 0 -80 0 -80 320 0 320 0 0 80 0 81 78 -3 77 -3 3 -77
3 -78 74 0 75 0 0 75 c1 41 1 113 1 160 0 47 0 119 -1 160 l0 75 -75 0 -75 0
0 80 0 80 75 0 75 0 0 80 0 80 -75 0 -75 0 0 80 0 80 -80 0 -80 0 0 160 0 161
78 -3 77 -3 3 -77 3 -78 74 0 75 0 0 -80 0 -80 80 0 80 0 0 -240 0 -240 80 0
80 0 0 320 0 320 -160 0 -161 0 3 78 3 77 80 2 c44 1 115 2 158 2 l77 1 0 155
0 154 -77 3 -78 3 -3 78 -3 77 -79 0 -80 0 0 80 0 80 -315 0 -315 0 0 -80 0
-80 315 0 315 0 0 -235 0 -235 -75 0 -75 0 0 155 0 155 -240 0 -240 0 0 -80 0
-81 -77 3 -78 3 -3 77 -3 77 -77 3 -77 3 -3 78 -3 77 80 0 80 0 3 158 3 157
77 3 77 3 3 77 3 77 75 0 75 0 3 -77 3 -78 79 0 80 0 0 155 0 155 81 0 80 0
-1 -77 c-1 -43 -1 -113 -1 -155 l1 -78 75 0 74 0 3 78 3 77 78 3 77 3 0 -81 0
-80 80 0 80 0 0 235 0 235 -80 0 -80 0 0 -80 0 -79 -155 0 -155 0 0 79 0 80
75 0 75 0 0 160 0 160 80 0 79 0 3 78 3 77 78 3 77 3 0 79 0 80 -80 0 -80 0 0
74 0 74 -77 4 c-43 2 -113 2 -155 0 l-78 -3 0 -74 0 -75 -240 0 -240 0 0 -80
0 -80 -160 0 -160 0 0 -80 0 -80 160 0 160 0 0 -80 0 -80 -235 0 -235 0 0 160
0 160 -80 0 -80 0 0 -160 0 -160 -80 0 -80 0 0 80 0 80 -80 0 -80 0 0 80 0 80
80 0 80 0 0 80 0 80 238 -1 c130 0 272 0 315 1 l77 0 0 75 0 75 -77 1 c-43 0
-149 0 -235 -1 l-158 0 0 160 0 160 80 0 80 0 0 -80 0 -80 75 0 75 0 0 80 0
80 -75 0 -75 0 0 80 0 80 75 0 75 0 0 80 0 80 -75 0 -75 0 0 80 0 80 -80 0
-80 0 0 -160 0 -160 -80 0 -80 0 0 -160 0 -160 -80 0 -80 0 0 240 0 240 80 0
80 0 0 80 0 80 -240 0 -240 0 0 -80 0 -80 80 0 80 0 0 -80 0 -80 -155 0 -154
0 -3 -157 -3 -158 -77 -3 -78 -3 0 81 0 80 -80 0 -80 0 0 80 0 80 80 0 80 0 0
160 0 160 80 0 80 0 0 74 0 75 -82 3 c-46 2 -118 2 -160 0z m-398 -712 l0 -81
-77 3 -78 3 -3 78 -3 77 81 0 80 0 0 -80z m320 0 l0 -80 -80 0 -80 0 0 80 0
80 80 0 80 0 0 -80z m630 0 l0 -80 80 0 80 0 0 -155 0 -155 -80 0 -80 0 0 155
0 154 -77 3 -78 3 -3 78 -3 77 81 0 80 0 0 -80z m1428 -632 l3 -78 79 0 80 0
0 80 0 80 75 0 75 0 0 -80 0 -80 -75 0 -74 0 -3 -77 -3 -78 -157 -3 -158 -3 0
81 0 80 -80 0 -80 0 0 80 0 81 158 -3 157 -3 3 -77z m-1268 -318 l0 -80 160 0
161 0 -3 -77 -3 -78 -157 -3 -158 -3 0 -74 0 -74 158 -3 157 -3 3 -77 3 -78
-241 0 -240 0 0 -160 0 -160 -155 0 -155 0 0 80 0 80 75 0 74 0 3 78 3 77 78
3 77 3 0 154 0 154 -77 3 -78 3 -2 158 -3 157 160 0 160 0 0 -80z m1268 -157
l-3 -78 -235 0 -235 0 -3 78 -3 77 241 0 241 0 -3 -77z m-1588 -158 l0 -75
-75 0 -75 0 0 75 0 75 75 0 75 0 0 -75z m-152 -157 l3 -78 -81 0 -80 0 0 80 0
81 78 -3 77 -3 3 -77z m1102 -158 l0 -240 -155 0 -154 0 -3 -77 -3 -78 -77 -3
-78 -3 0 -80 0 -80 -77 3 -78 3 -3 238 -2 237 80 0 80 0 0 -80 0 -80 80 0 80
0 0 80 0 80 80 0 80 0 0 160 0 160 75 0 75 0 0 -240z m-1580 -320 l0 -80 80 0
80 0 0 -80 0 -80 80 0 80 0 0 -75 0 -74 78 -3 77 -3 3 -77 3 -78 -81 0 -80 0
0 80 0 80 -80 0 -80 0 0 -80 0 -80 -80 0 -80 0 0 80 0 80 -80 0 -80 0 0 75 0
74 -77 3 -78 3 -3 78 -3 77 -74 0 -75 0 0 80 0 80 235 0 235 0 0 -80z m2058
-633 l2 -237 -237 2 -238 3 -2 225 c-2 124 -1 231 2 237 3 10 60 12 237 10
l233 -2 3 -238z m162 -552 l0 -155 -80 0 -80 0 0 -80 0 -80 -80 0 -80 0 0 155
0 155 80 0 80 0 0 80 0 80 80 0 80 0 0 -155z"/>
<path d="M2760 2630 l0 -80 80 0 80 0 0 80 0 80 -80 0 -80 0 0 -80z"/>
<path d="M1810 1680 l0 -80 80 0 80 0 0 -75 0 -75 80 0 80 0 0 75 0 75 -80 0
-80 0 0 80 0 80 -80 0 -80 0 0 -80z"/>
<path d="M3710 1210 l0 -80 80 0 80 0 0 80 0 80 -80 0 -80 0 0 -80z"/>
<path d="M1173 3502 l-153 -3 0 -74 0 -75 -80 0 -80 0 0 75 0 75 -80 0 -80 0
0 -75 0 -75 -155 0 -155 0 0 -80 0 -80 -80 0 -80 0 0 -80 0 -80 80 0 80 0 0
80 0 81 78 -3 77 -3 3 -157 3 -158 -161 0 -160 0 0 -160 0 -160 80 0 80 0 0
-75 0 -75 78 -1 c42 0 112 0 155 1 l77 1 0 -80 0 -81 80 0 79 0 3 78 3 77 78
3 77 3 0 74 0 75 80 0 80 0 0 -75 0 -74 78 -3 c42 -2 114 -2 160 0 l82 3 0 75
0 74 -82 1 c-46 0 -118 0 -160 -1 l-78 -1 0 80 0 81 80 0 80 0 0 80 0 80 80 0
80 0 0 -80 0 -80 75 0 75 0 0 80 0 80 -75 0 -75 0 0 160 0 160 75 0 75 0 0 80
0 80 -75 0 -75 0 0 74 0 75 -87 3 c-49 2 -157 2 -240 0z m165 -234 l3 -78 -81
0 -80 0 0 -80 0 -80 80 0 80 0 0 -80 0 -80 -240 0 -240 0 0 -160 0 -159 -235
0 -235 0 0 79 0 80 80 0 80 0 0 80 0 80 155 0 154 0 3 158 3 157 78 3 77 3 0
80 0 80 158 -3 157 -3 3 -77z"/>
<path d="M230 2160 l0 -80 80 0 80 0 0 -160 0 -160 315 0 315 0 0 160 0 160
-315 0 -315 0 0 80 0 80 -80 0 -80 0 0 -80z"/>
<path d="M230 1525 l0 -75 80 0 80 0 0 75 0 75 -80 0 -80 0 0 -75z"/>
<path d="M860 1525 l0 -75 80 0 80 0 0 75 0 75 -80 0 -80 0 0 -75z"/>
<path d="M230 735 l0 -555 555 0 555 0 0 555 0 555 -555 0 -555 0 0 -555z
m950 0 l0 -395 -395 0 -395 0 0 395 0 395 395 0 395 0 0 -395z"/>
<path d="M549 893 c-1 -171 1 -387 4 -390 3 -3 219 -5 390 -4 l77 1 0 235 0
235 -235 0 -235 0 -1 -77z"/>
<path d="M1500 730 l0 -80 75 0 75 0 0 80 0 80 -75 0 -75 0 0 -80z"/>
<path d="M1650 340 l0 -160 160 0 160 0 0 80 0 80 -80 0 -80 0 0 80 0 80 -80
0 -80 0 0 -160z"/>
<path d="M2130 420 l0 -80 80 0 80 0 0 -80 0 -80 235 0 235 0 0 80 0 80 -235
0 -235 0 0 80 0 80 -80 0 -80 0 0 -80z"/>
<path d="M3240 420 l0 -80 -160 0 -160 0 0 -80 0 -80 160 0 160 0 0 80 0 80
80 0 80 0 0 80 0 80 -80 0 -80 0 0 -80z"/>
<path d="M4660 260 l0 -80 80 0 80 0 0 80 0 80 -80 0 -80 0 0 -80z"/>
</g>
</svg>
